HIERARCHY
ROOT root
{
	OFFSET	0	13.1	24.9
	CHANNELS 6  Xposition Yposition Zposition Xrotation Yrotation Zrotation
	JOINT spine_1
	{
		OFFSET	0	9.99999	0
		CHANNELS 3  Xrotation Yrotation Zrotation
		JOINT spine_2
		{
			OFFSET	0	112	-10
			CHANNELS 3  Xrotation Yrotation Zrotation
			JOINT spine_3
			{
				OFFSET	0	206.5	19.3
				CHANNELS 3  Xrotation Yrotation Zrotation
				JOINT spine_4
				{
					OFFSET	0	110.4	14.6
					CHANNELS 3  Xrotation Yrotation Zrotation
					JOINT neck_1
					{
						OFFSET	0	71.8	-50.3
						CHANNELS 3  Xrotation Yrotation Zrotation
						JOINT neck_2
						{
							OFFSET	0	86.2	-25.8
							CHANNELS 3  Xrotation Yrotation Zrotation
							JOINT head_ee
							{
								OFFSET	0	179.8	-8.7
								CHANNELS 3  Xrotation Yrotation Zrotation
								End Site
								{
									OFFSET	1	0	0
								}
							}
						}
					}
					JOINT left_clavicle
					{
						OFFSET	-43.2	22.4	-70.8
						CHANNELS 3  Xrotation Yrotation Zrotation
						JOINT left_shoulder
						{
							OFFSET	-93.9	-5.79999	48.7
							CHANNELS 3  Xrotation Yrotation Zrotation
							JOINT left_elbow
							{
								OFFSET	-291.4	-30.8	15.2
								CHANNELS 3  Xrotation Yrotation Zrotation
								JOINT left_lowarm_twist
								{
									OFFSET	-110.7	-3.89999	13.6
									CHANNELS 3  Xrotation Yrotation Zrotation
									JOINT left_hand
									{
										OFFSET	-110.7	-3.89999	13.6
										CHANNELS 3  Xrotation Yrotation Zrotation
										JOINT left_ee
										{
											OFFSET	-80.8	-5.10001	12.1
											CHANNELS 3  Xrotation Yrotation Zrotation
											End Site
											{
												OFFSET	1	0	0
											}
										}
									}
								}
							}
						}
					}
					JOINT right_clavicle
					{
						OFFSET	43.2	22.4	-70.8
						CHANNELS 3  Xrotation Yrotation Zrotation
						JOINT right_shoulder
						{
							OFFSET	93.9	-5.79999	48.7
							CHANNELS 3  Xrotation Yrotation Zrotation
							JOINT right_elbow
							{
								OFFSET	291.4	-30.8	15.2
								CHANNELS 3  Xrotation Yrotation Zrotation
								JOINT right_lowarm_twist
								{
									OFFSET	110.7	-3.89999	13.6
									CHANNELS 3  Xrotation Yrotation Zrotation
									JOINT right_hand
									{
										OFFSET	110.7	-3.89999	13.6
										CHANNELS 3  Xrotation Yrotation Zrotation
										JOINT right_ee
										{
											OFFSET	80.8	-5.10001	12.1
											CHANNELS 3  Xrotation Yrotation Zrotation
											End Site
											{
												OFFSET	1	0	0
											}
										}
									}
								}
							}
						}
					}
				}
			}
		}
	}
	JOINT left_hip
	{
		OFFSET	-82.8	-127.5	0.300001
		CHANNELS 3  Xrotation Yrotation Zrotation
		JOINT left_knee
		{
			OFFSET	-28.2	-396.7	2.2
			CHANNELS 3  Xrotation Yrotation Zrotation
			JOINT left_ankle
			{
				OFFSET	-11.7	-411.3	35.4
				CHANNELS 3  Xrotation Yrotation Zrotation
				JOINT left_toes
				{
					OFFSET	0	-60	-88.6
					CHANNELS 3  Xrotation Yrotation Zrotation
					JOINT left_foot_ee
					{
						OFFSET	-22.5	-16.5	-42.2
						CHANNELS 3  Xrotation Yrotation Zrotation
						End Site
						{
							OFFSET	1	0	0
						}
					}
				}
			}
		}
	}
	JOINT right_hip
	{
		OFFSET	82.8	-127.5	0.300001
		CHANNELS 3  Xrotation Yrotation Zrotation
		JOINT right_knee
		{
			OFFSET	28.2	-396.7	2.2
			CHANNELS 3  Xrotation Yrotation Zrotation
			JOINT right_ankle
			{
				OFFSET	11.7	-411.3	35.4
				CHANNELS 3  Xrotation Yrotation Zrotation
				JOINT right_toes
				{
					OFFSET	0	-60	-88.6
					CHANNELS 3  Xrotation Yrotation Zrotation
					JOINT right_foot_ee
					{
						OFFSET	22.5	-16.5	-42.2
						CHANNELS 3  Xrotation Yrotation Zrotation
						End Site
						{
							OFFSET	1	0	0
						}
					}
				}
			}
		}
	}
}
MOTION
Frames: 12
Frame Time: 0.02
1152.78471161 742.188 -1722.61590115 -0.307298693452 41.1681523503 -6.04906470366 2.43282 0.27804 1.92985 2.43488 0.154699 1.94362 2.43983 -0.174787 1.94192 2.43459 0.134037 1.94516 -9.07006 12.6921 0.739136 -9.19639 23.315 3.75856 -0.0 0.0 -0.0 4.95276 3.60395 9.67125 -40.5004 -14.6772 59.5838 0.68035 -18.6252 0.111567 60.3855 -1.80836 -7.14337 -0.462298 8.2609 0.443525 -0.0 0.0 -0.0 11.6294 4.21416 -23.316 -18.6173 26.5536 -60.1016 1.0117 26.6178 -0.239327 23.825 -0.215595 3.01395 -0.832912 2.19828 6.53282 0.0 0.0 0.0 14.5955 -8.63032 7.27513 -46.7923 -0.95442 6.92162 35.5021 -21.6029 -4.99137 37.7388 -0.0 -0.0 -0.0 0.0 -0.0 1.6172 33.6967 0.206792 -8.2243 -0.250239 -1.23629 30.9801 -13.2582 4.02372 23.5569 -0.0 -0.0 0.0 0.0 0.0 
1145.03234096 736.833 -1737.90092181 -0.978675727315 41.7391885237 -5.74855485048 2.48883 0.206252 1.70765 2.49045 0.0971878 1.71731 2.49309 -0.191791 1.70933 2.48902 0.0805327 1.71817 -10.4583 12.3242 0.866532 -10.6573 22.6811 4.07286 -0.0 0.0 -0.0 4.80244 4.06187 9.39964 -41.1638 -14.9921 59.485 0.696459 -19.0347 0.116766 60.4795 -1.81681 -7.15199 -0.726531 9.16311 -0.874486 -0.0 0.0 -0.0 11.4449 3.36202 -22.8759 -18.0827 27.0119 -59.2702 1.05811 27.661 -0.260502 22.9234 -0.230372 2.89972 -0.608759 4.75836 6.12876 0.0 0.0 0.0 17.0428 -8.26832 5.82848 -46.9368 -0.965976 6.94062 35.599 -23.1275 -5.0715 37.5049 -0.0 -0.0 -0.0 0.0 -0.0 -1.79878 34.8109 1.77805 -4.43163 -0.156927 -0.661849 28.5225 -16.7223 3.79031 22.1956 -0.0 -0.0 0.0 0.0 0.0 
1104.27766758 749.143 -1757.69635616 1.09533366596 44.5863108531 -7.02011745063 2.47736 0.377215 1.5707 2.47869 0.276516 1.59151 2.48621 0.00595706 1.61534 2.48267 0.260962 1.59414 -12.2141 11.8889 1.06605 -12.493 21.8918 4.4944 -0.0 0.0 -0.0 4.04954 5.32454 8.03937 -43.4708 -15.1703 60.3995 0.708069 -19.3287 0.120581 60.6144 -1.82893 -7.16432 -1.04555 10.2426 -2.44879 -0.0 0.0 -0.0 11.2019 2.35115 -22.3025 -16.5572 27.8055 -57.4611 1.16602 30.0102 -0.312555 21.8955 -0.245023 2.76924 -0.330793 7.99277 5.63522 0.0 0.0 0.0 22.8978 -7.31768 4.80365 -46.3067 -0.915933 6.85755 35.7411 -24.7847 -5.16907 37.1426 -0.0 -0.0 -0.0 0.0 -0.0 -7.6936 35.6652 3.03959 0.23335 0.00967888 0.0345013 25.7671 -21.1982 3.53293 20.3025 -0.0 -0.0 0.0 0.0 0.0 
1092.21046489 726.008 -1767.09591574 0.581373455264 45.7910418007 -6.79046013221 2.63904 0.395812 1.40579 2.64008 0.305565 1.42812 2.64754 0.066092 1.45895 2.64469 0.295652 1.43021 -12.2038 11.833 1.22636 -12.4754 21.6828 4.62716 -0.0 0.0 -0.0 3.29655 5.46194 6.66289 -45.3365 -15.5763 61.0758 0.748645 -20.3476 0.134351 61.9829 -1.9536 -7.28778 -0.774059 10.515 -0.594552 -0.0 0.0 -0.0 11.2155 1.53433 -22.2874 -13.3096 28.8017 -57.51 1.27293 32.2331 -0.367825 20.3867 -0.262281 2.5773 -0.458399 8.06669 6.53332 0.0 0.0 0.0 23.3996 -6.8834 5.40746 -46.9756 -0.969084 6.94571 38.3201 -24.3083 -5.40311 38.1263 -0.0 -0.0 -0.0 0.0 -0.0 -8.3871 34.0268 2.50401 1.6502 0.0714628 0.243131 31.0216 -21.9487 4.15472 18.1493 -0.0 -0.0 0.0 0.0 0.0 
1078.07479119 724.443 -1782.17985145 0.506114041922 45.0136352244 -6.39289672812 2.66953 0.500614 1.28625 2.67036 0.417759 1.31549 2.67985 0.196113 1.36622 2.67748 0.409402 1.31812 -11.9241 13.0748 2.9619 -12.1929 22.9075 6.59527 -0.0 0.0 -0.0 2.77315 6.22928 5.75217 -46.5911 -15.737 61.6077 0.791668 -21.4135 0.149686 63.754 -2.11929 -7.44311 -0.561892 9.7599 0.438741 -0.0 0.0 -0.0 11.2335 0.884712 -22.2871 -11.682 29.0811 -58.2103 1.36907 34.1432 -0.420456 18.154 -0.278533 2.29259 -0.387339 9.44999 6.64342 0.0 0.0 0.0 29.9281 -7.37452 2.71036 -47.4576 -1.00803 7.00887 36.453 -21.7209 -5.09293 38.8255 -0.0 -0.0 -0.0 0.0 -0.0 -9.84715 32.7905 1.87516 0.93327 0.0395541 0.137751 39.2623 -21.9827 5.00857 16.2996 -0.0 -0.0 0.0 0.0 0.0 
1059.21943177 719.741 -1793.38763503 0.396348063801 44.9853065613 -5.67728396421 2.68943 0.567559 1.17664 2.69007 0.491542 1.21036 2.7004 0.286628 1.27452 2.69846 0.484303 1.21328 -11.0797 13.9523 3.89735 -11.3031 23.8508 7.56222 -0.0 0.0 -0.0 2.25114 6.91266 4.85539 -47.6279 -15.8753 62.1017 0.804484 -21.728 0.154398 65.3775 -2.27535 -7.58098 -0.226935 8.7381 2.16385 -0.0 0.0 -0.0 11.2487 0.206732 -22.2756 -10.4106 29.1509 -59.1196 1.41156 34.961 -0.444556 15.6124 -0.283518 1.96804 -0.207107 12.5643 6.74974 0.0 0.0 0.0 33.7746 -9.62279 1.17185 -48.7867 -1.11815 7.18131 37.0959 -20.4275 -5.09979 40.1858 -0.0 -0.0 -0.0 0.0 -0.0 -10.6149 31.0307 0.742378 0.772807 0.0325934 0.114112 41.983 -23.9991 5.32104 15.0012 -0.0 -0.0 0.0 0.0 0.0 
1055.24888885 719.741 -1789.43436054 0.401417656324 45.704766798 -5.68441052256 2.68943 0.567559 1.17664 2.69007 0.491542 1.21036 2.7004 0.286628 1.27452 2.69846 0.484303 1.21328 -11.0797 13.9523 3.89735 -11.3031 23.8508 7.56222 -0.0 0.0 -0.0 2.25114 6.91266 4.85539 -47.6279 -15.8753 62.1017 0.804484 -21.728 0.154398 65.3775 -2.27535 -7.58098 -0.226935 8.7381 2.16385 -0.0 0.0 -0.0 11.2487 0.206732 -22.2756 -10.4106 29.1509 -59.1196 1.41156 34.961 -0.444556 15.6124 -0.283518 1.96804 -0.207107 12.5643 6.74974 0.0 0.0 0.0 33.7746 -9.62279 1.17185 -48.7867 -1.11815 7.18131 37.0959 -20.4275 -5.09979 40.1858 -0.0 -0.0 -0.0 0.0 -0.0 -10.6149 31.0307 0.742378 0.772807 0.0325934 0.114112 41.983 -23.9991 5.32104 15.0012 -0.0 -0.0 0.0 0.0 0.0 
1041.96492247 719.801 -1815.09860788 -0.711557783801 42.7375434594 -3.84349024316 2.83801 0.667808 1.21033 2.83863 0.589444 1.25037 2.85144 0.380188 1.32902 2.84945 0.585295 1.25232 -9.96735 14.5625 3.78133 -10.1431 24.9064 7.37779 -0.0 0.0 -0.0 1.75019 8.14335 4.05529 -49.075 -16.0038 63.0338 0.816947 -22.0326 0.159042 68.0543 -2.54102 -7.79851 0.157287 7.55661 4.16899 -0.0 0.0 -0.0 11.3868 -0.691097 -22.5029 -8.23863 29.0555 -60.9787 1.48088 36.2608 -0.484919 11.921 -0.265123 1.49699 0.00957352 16.288 6.86975 0.0 0.0 0.0 38.2792 -13.4507 0.223509 -47.4564 -1.00793 7.00871 38.8254 -19.085 -5.20841 39.9932 -0.0 -0.0 -0.0 0.0 -0.0 -11.5549 29.0363 -1.24161 0.606169 0.025435 0.0895426 42.3513 -26.7194 5.45038 12.7429 -0.0 -0.0 0.0 0.0 0.0 
1038.48800297 719.801 -1811.68696812 -0.71842035999 43.3265782818 -3.83343395631 2.83801 0.667808 1.21033 2.83863 0.589444 1.25037 2.85144 0.380188 1.32902 2.84945 0.585295 1.25232 -9.96735 14.5625 3.78133 -10.1431 24.9064 7.37779 -0.0 0.0 -0.0 1.75019 8.14335 4.05529 -49.075 -16.0038 63.0338 0.816947 -22.0326 0.159042 68.0543 -2.54102 -7.79851 0.157287 7.55661 4.16899 -0.0 0.0 -0.0 11.3868 -0.691097 -22.5029 -8.23863 29.0555 -60.9787 1.48088 36.2608 -0.484919 11.921 -0.265123 1.49699 0.00957352 16.288 6.86975 0.0 0.0 0.0 38.2792 -13.4507 0.223509 -47.4564 -1.00793 7.00871 38.8254 -19.085 -5.20841 39.9932 -0.0 -0.0 -0.0 0.0 -0.0 -11.5549 29.0363 -1.24161 0.606169 0.025435 0.0895426 42.3513 -26.7194 5.45038 12.7429 -0.0 -0.0 0.0 0.0 0.0 
1034.18677646 719.801 -1807.36766096 -0.727306287697 44.0636818511 -3.82057137052 2.83801 0.667808 1.21033 2.83863 0.589444 1.25037 2.85144 0.380188 1.32902 2.84945 0.585295 1.25232 -9.96735 14.5625 3.78133 -10.1431 24.9064 7.37779 -0.0 0.0 -0.0 1.75019 8.14335 4.05529 -49.075 -16.0038 63.0338 0.816947 -22.0326 0.159042 68.0543 -2.54102 -7.79851 0.157287 7.55661 4.16899 -0.0 0.0 -0.0 11.3868 -0.691097 -22.5029 -8.23863 29.0555 -60.9787 1.48088 36.2608 -0.484919 11.921 -0.265123 1.49699 0.00957352 16.288 6.86975 0.0 0.0 0.0 38.2792 -13.4507 0.223509 -47.4564 -1.00793 7.00871 38.8254 -19.085 -5.20841 39.9932 -0.0 -0.0 -0.0 0.0 -0.0 -11.5549 29.0363 -1.24161 0.606169 0.025435 0.0895426 42.3513 -26.7194 5.45038 12.7429 -0.0 -0.0 0.0 0.0 0.0 
1029.10471743 719.801 -1802.11778167 -0.738415069283 44.9472353275 -3.80472427715 2.83801 0.667808 1.21033 2.83863 0.589444 1.25037 2.85144 0.380188 1.32902 2.84945 0.585295 1.25232 -9.96735 14.5625 3.78133 -10.1431 24.9064 7.37779 -0.0 0.0 -0.0 1.75019 8.14335 4.05529 -49.075 -16.0038 63.0338 0.816947 -22.0326 0.159042 68.0543 -2.54102 -7.79851 0.157287 7.55661 4.16899 -0.0 0.0 -0.0 11.3868 -0.691097 -22.5029 -8.23863 29.0555 -60.9787 1.48088 36.2608 -0.484919 11.921 -0.265123 1.49699 0.00957352 16.288 6.86975 0.0 0.0 0.0 38.2792 -13.4507 0.223509 -47.4564 -1.00793 7.00871 38.8254 -19.085 -5.20841 39.9932 -0.0 -0.0 -0.0 0.0 -0.0 -11.5549 29.0363 -1.24161 0.606169 0.025435 0.0895426 42.3513 -26.7194 5.45038 12.7429 -0.0 -0.0 0.0 0.0 0.0 
1025.20553403 719.801 -1797.97771551 -0.747423786827 45.6349391718 -3.79204849067 2.83801 0.667808 1.21033 2.83863 0.589444 1.25037 2.85144 0.380188 1.32902 2.84945 0.585295 1.25232 -9.96735 14.5625 3.78133 -10.1431 24.9064 7.37779 -0.0 0.0 -0.0 1.75019 8.14335 4.05529 -49.075 -16.0038 63.0338 0.816947 -22.0326 0.159042 68.0543 -2.54102 -7.79851 0.157287 7.55661 4.16899 -0.0 0.0 -0.0 11.3868 -0.691097 -22.5029 -8.23863 29.0555 -60.9787 1.48088 36.2608 -0.484919 11.921 -0.265123 1.49699 0.00957352 16.288 6.86975 0.0 0.0 0.0 38.2792 -13.4507 0.223509 -47.4564 -1.00793 7.00871 38.8254 -19.085 -5.20841 39.9932 -0.0 -0.0 -0.0 0.0 -0.0 -11.5549 29.0363 -1.24161 0.606169 0.025435 0.0895426 42.3513 -26.7194 5.45038 12.7429 -0.0 -0.0 0.0 0.0 0.0 
